<svg xmlns="http://www.w3.org/2000/svg" viewBox="0 0 48 48">
  <rect width="48" height="48" rx="12" fill="#FBF6EC"/>
  <path fill="#2A6F6B" d="M24 26c6.2 0 11 4.1 11 9.2 0 4.1-3.2 6.8-7.4 5.4-1.7-.6-2.5-1-3.6-1s-1.9.4-3.6 1C16.2 42 13 39.3 13 35.2 13 30.1 17.8 26 24 26Zm-12.2-7.2c2.5-.8 5.4 1.4 6.3 4.9.9 3.5-.5 6.9-3 7.6-2.6.7-5.4-1.5-6.3-5-.9-3.4.4-6.8 3-7.5Zm24.4 0c2.6.7 3.9 4.1 3 7.5-.9 3.5-3.7 5.7-6.3 5-2.5-.7-3.9-4.1-3-7.6.9-3.5 3.8-5.7 6.3-4.9ZM19.5 7c2.8-.2 5.2 2.7 5.4 6.5.2 3.7-1.9 6.9-4.7 7.1-2.8.1-5.2-2.8-5.4-6.5-.2-3.8 1.9-6.9 4.7-7.1Zm9 0c2.8.2 4.9 3.3 4.7 7.1-.2 3.7-2.6 6.6-5.4 6.5-2.8-.2-4.9-3.4-4.7-7.1.2-3.8 2.6-6.7 5.4-6.5Z"/>
</svg>
